<svg xmlns="http://www.w3.org/2000/svg" height="24px" viewBox="0 0 24 24" width="24px" fill="#C1C3C5">
    <path d="M9.47336146,7.49057294e-05 C7.78895769,0.00993937541 6.38763929,0.954694653 6.06830697,2.20664456 C5.95295215,2.51979542 5.9000001,2.72000003 5.9000001,2.72000003 C5.9000001,2.72000003 5.83519774,2.97603987 5.82999992,3 L5.4000001,5 L4,5 L4,6 L5.30000019,6 L3.77111816,13.5142822 C3.77111816,13.5142822 3.20471191,16.1555176 2.34106445,16.697876 C1.86203272,16.9987011 1.28420828,17.0434054 1.10778809,17.0002441 C1.61537673,16.9339541 2,16.5118938 2,16 C2.00129865,15.9731602 1.99779672,15.8833762 1.99000431,15.8580638 C1.92561788,15.4049216 1.55747359,15.049577 1.09831297,15.0047715 C1.0828693,15.0016337 1.06828346,15 1.0546875,15 C1.0172438,15.0001094 1.00863468,15 1,15 C0.44771525,15 0,15.4477153 0,16 C0,16.0307214 0.00138534577,16.0611193 0.00409697465,16.0911345 C0.00136565662,16.133227 0,16.1764165 0,16.2207031 C0,16.4812866 0.041806143,16.719484 0.125418993,16.9352965 L0.157775879,17.0002441 C0.157775879,17.0002441 0.498168945,17.9716187 2.01452637,17.9716187 C3.53088379,17.9716187 4.26623535,17.0150146 4.81488037,15.9563599 C5.14147315,15.3261728 5.38030073,14.3820163 5.52012378,13.7209903 L5.64728783,13.0575346 C5.65870849,12.9903589 5.66448975,12.9530029 5.66448975,12.9530029 L7,6 L10,6 L10,5 L7.28428531,5 L7.36000045,4.62953661 L7.53528358,3.70156713 C7.61089628,3.30975584 7.70025541,2.96950377 7.80336365,2.68080071 C7.90647188,2.39209765 8.0336368,2.15323382 8.18486221,1.96420206 C8.33608762,1.77517029 8.51652433,1.63597626 8.72617774,1.54661579 C8.93583115,1.45725532 9.18844254,1.41257576 9.48401948,1.41257576 C9.64211877,1.41257576 9.78646813,1.42632332 9.9170719,1.45381885 C9.99447966,1.47011522 10.0658501,1.4870151 10.131184,1.50451869 C10.0477065,1.65057964 10,1.81971859 10,2 C10,2.55228475 10.4477153,3 11,3 C11.457729,3 11.8436297,2.69246635 11.9623514,2.27274965 C11.9871041,2.21708163 12,2.12871738 12,2 C12,1.2154012 11.491731,0.536324697 10.7519032,0.208734959 C10.6774691,0.172852789 10.5949024,0.141523674 10.5031814,0.114805726 C10.2676987,0.0404663358 10.0141658,1.13686838e-13 9.75,1.13686838e-13 C9.71513575,1.13686838e-13 9.68113145,0.000774776085 9.64795887,0.00228742319 C9.59159775,0.000807963799 9.53341957,6.92664413e-05 9.47336146,7.49057294e-05 Z"/>
    <path d="M8,13 L8,14 L11.0040283,14 L11.0028687,13 L10.3999996,13 L12.75,10.5 L14,13 L13.5017395,13 L13.5,14 L16.75,14 L16.75,13 L16.25,13 C15.9738576,13 15.6608113,12.7961402 15.5492527,12.5411491 L14,9 L16.8771837,6.34413815 C17.0830844,6.1540759 17.4709682,6 17.7460842,6 L18,6 L18,5 L14.9978638,5 L15,6 L16.0369873,6 L13.5017395,8.30000019 L12.2235107,6 L12.75,6 L12.75,5 L9.5,5 L9.5,6 L10,6 C10.2761424,6 10.6042297,6.20845938 10.7216387,6.44327742 L12.25,9.5 L9.33556607,12.6386212 C9.15023805,12.8382052 8.76806641,13 8.5,13 L8,13 Z"/>
</svg>



